<svg xmlns="http://www.w3.org/2000/svg" viewBox="0 0 26.458 26.458" height="100" width="100"><path d="M19.417 5.12a6.1 6.1 0 00-2.924.803c-2.82 1.595-3.442 4.6-3.01 6.712.681 3.322-1.622 6.444-4.694 7.176-2.098.5-5.149.052-7.057-3.322 1.632 5.023 6.383 8.435 11.755 8.442 6.823 0 12.354-5.43 12.354-12.126-.005-1.646-.17-3.369-1.018-4.786-1.237-2.065-3.41-2.926-5.406-2.898z" fill="#0047a0"/><text style="line-height:125%" x="33.033" y="39.634" transform="matrix(1.42547 0 0 1.37445 -43.683 -38.087)" font-weight="400" font-size="10.077" font-family="sans-serif" letter-spacing="-.011" word-spacing="0" fill="#0047a0" stroke-width=".252"><tspan x="33.033" y="39.634" style="-inkscape-font-specification:'Tunga Bold'" font-weight="700" font-family="Tunga">D</tspan></text><text style="line-height:125%" x="42.184" y="39.556" transform="matrix(1.42547 0 0 1.37445 -43.683 -38.087)" font-weight="400" font-size="10.077" font-family="sans-serif" letter-spacing="-.011" word-spacing="0" fill="#fff" stroke-width=".252"><tspan x="42.184" y="39.556" style="-inkscape-font-specification:'Tunga Bold'" font-weight="700" font-family="Tunga">P</tspan></text></svg>