<svg xmlns="http://www.w3.org/2000/svg" viewBox="0 0 52.917 21.167" height="80" width="200"><path d="M15.82 4.23a4.877 4.877 0 00-2.338.641c-2.255 1.275-2.751 3.677-2.406 5.366.544 2.656-1.297 5.152-3.753 5.737-1.677.399-4.116.041-5.641-2.656 1.304 4.015 5.103 6.743 9.397 6.749 5.455 0 9.877-4.34 9.876-9.694-.003-1.316-.135-2.693-.814-3.826-.989-1.651-2.726-2.34-4.321-2.317z" fill="#0047a0"/><g font-family="sans-serif" letter-spacing="-.012" word-spacing="0"><text transform="matrix(1.01839 0 0 .98194 0 -58.208)" y="72.76" x="2.965" style="line-height:125%" font-weight="400" font-size="11.276" fill="#0047a0" stroke-width=".282"><tspan style="-inkscape-font-specification:'Tunga Bold'" y="72.76" x="2.965" font-weight="700" font-family="Tunga">D</tspan></text><text transform="matrix(1.01839 0 0 .98194 0 -58.208)" y="72.673" x="13.205" style="line-height:125%" font-weight="400" font-size="11.276" fill="#fff" stroke-width=".282"><tspan style="-inkscape-font-specification:'Tunga Bold'" y="72.673" x="13.205" font-weight="700" font-family="Tunga">P</tspan></text><text transform="matrix(.95737 0 0 1.04453 0 -58.208)" y="68.404" x="21.908" style="line-height:125%;-inkscape-font-specification:'sans-serif Bold'" font-weight="700" font-size="10.645" fill="#0047a0" stroke-width=".266"><tspan style="-inkscape-font-specification:'sans-serif Bold'" y="68.404" x="21.908" font-size="5.677" letter-spacing="-.435"><tspan letter-spacing="-.225">ool</tspan> <tspan letter-spacing="-.148">Se</tspan><tspan letter-spacing=".018">r</tspan><tspan letter-spacing="-.216">vi</tspan><tspan letter-spacing="-.107">ce</tspan></tspan></text></g></svg>